<svg width="20" height="20" viewBox="0 0 20 20" fill="none" xmlns="http://www.w3.org/2000/svg">
<g clip-path="url(#clip0_134_17284)">
<path d="M17.9437 10.156C17.9437 9.47314 17.8883 8.97486 17.7684 8.45813H9.97119V11.5401H14.548C14.4557 12.306 13.9575 13.4594 12.8501 14.2345L12.8346 14.3376L15.2999 16.2475L15.4707 16.2646C17.0394 14.8158 17.9437 12.6843 17.9437 10.156Z" fill="#4285F4"/>
<path d="M9.97114 18.2761C12.2134 18.2761 14.0958 17.5379 15.4707 16.2645L12.8501 14.2344C12.1488 14.7235 11.2076 15.0649 9.97114 15.0649C7.77502 15.0649 5.91109 13.6162 5.24665 11.6139L5.14926 11.6222L2.58577 13.6061L2.55225 13.6993C3.91789 16.4121 6.72305 18.2761 9.97114 18.2761Z" fill="#34A853"/>
<path d="M5.24672 11.6139C5.0714 11.0971 4.96994 10.5435 4.96994 9.97139C4.96994 9.39925 5.0714 8.84562 5.2375 8.32889L5.23285 8.21884L2.63724 6.20306L2.55232 6.24346C1.98947 7.36922 1.6665 8.63341 1.6665 9.97139C1.6665 11.3094 1.98947 12.5735 2.55232 13.6992L5.24672 11.6139Z" fill="#FBBC05"/>
<path d="M9.97114 4.87782C11.5306 4.87782 12.5825 5.55142 13.1823 6.11433L15.526 3.82591C14.0866 2.48793 12.2134 1.66669 9.97114 1.66669C6.72305 1.66669 3.91789 3.53062 2.55225 6.24347L5.23742 8.3289C5.91109 6.32655 7.77502 4.87782 9.97114 4.87782Z" fill="#EB4335"/>
</g>
<defs>
<clipPath id="clip0_134_17284">
<rect width="16.285" height="16.6667" fill="white" transform="translate(1.6665 1.66669)"/>
</clipPath>
</defs>
</svg>
