<svg width="1em" height="1em" viewBox="0 0 21 20" fill="none" xmlns="http://www.w3.org/2000/svg">
<path d="M10.9491 3.77417C11.9012 2.92183 13.1437 2.46656 14.4211 2.50189C15.6985 2.53723 16.9139 3.0605 17.8174 3.96417C18.7202 4.86682 19.2435 6.08062 19.2801 7.35674C19.3167 8.63286 18.8637 9.87463 18.0141 10.8275L10.9474 17.9042L3.88243 10.8275C3.03181 9.87413 2.57843 8.6313 2.61537 7.35415C2.65232 6.07701 3.17678 4.86246 4.08109 3.95986C4.9854 3.05725 6.20093 2.53509 7.47815 2.50055C8.75536 2.46602 9.99734 2.92175 10.9491 3.77417ZM16.6374 5.14167C16.0354 4.5401 15.226 4.19173 14.3753 4.16802C13.5246 4.14431 12.697 4.44707 12.0624 5.01417L10.9499 6.0125L9.8366 5.015C9.20163 4.44722 8.37335 4.14414 7.52189 4.16801C6.67043 4.19187 5.86043 4.54088 5.25826 5.14333C4.66181 5.73975 4.31364 6.54012 4.28395 7.38308C4.25426 8.22605 4.54525 9.04892 5.09826 9.68583L10.9483 15.545L16.7983 9.68667C17.3519 9.0495 17.6432 8.22603 17.6133 7.38248C17.5835 6.53892 17.2347 5.7381 16.6374 5.14167Z" fill="#1A1A1A"/>
</svg>
