<svg width="1em" height="1em" viewBox="0 0 21 20" fill="none" xmlns="http://www.w3.org/2000/svg">
<path d="M10.9482 18.3333C6.3457 18.3333 2.61487 14.6025 2.61487 10C2.61487 5.3975 6.3457 1.66667 10.9482 1.66667C15.5507 1.66667 19.2815 5.3975 19.2815 10C19.2815 14.6025 15.5507 18.3333 10.9482 18.3333ZM6.79237 15.2133C7.97199 16.1564 9.43793 16.6691 10.9482 16.6667C12.5251 16.6689 14.0514 16.1101 15.254 15.09C14.7113 14.5331 14.0624 14.0907 13.3457 13.789C12.6291 13.4873 11.8591 13.3323 11.0815 13.3333C10.2754 13.3324 9.47779 13.499 8.73942 13.8227C8.00106 14.1463 7.33802 14.6199 6.79237 15.2133ZM5.6282 14.0167C6.32858 13.2734 7.17376 12.6814 8.11165 12.2773C9.04954 11.8731 10.0603 11.6653 11.0815 11.6667C12.0662 11.6654 13.0415 11.8586 13.9513 12.2353C14.8611 12.612 15.6876 13.1647 16.3832 13.8617C17.0966 12.8576 17.5179 11.6755 17.6003 10.4466C17.6828 9.21766 17.4232 7.98991 16.8503 6.89955C16.2774 5.80919 15.4136 4.89885 14.3548 4.26954C13.296 3.64022 12.0836 3.31653 10.852 3.33438C9.62047 3.35222 8.41792 3.71091 7.3778 4.37063C6.33768 5.03036 5.50067 5.96534 4.95961 7.07184C4.41855 8.17833 4.19461 9.41309 4.31263 10.6391C4.43065 11.8652 4.88601 13.0345 5.6282 14.0175V14.0167ZM10.9482 10.8333C10.0641 10.8333 9.2163 10.4821 8.59118 9.85702C7.96606 9.2319 7.61487 8.38406 7.61487 7.5C7.61487 6.61595 7.96606 5.7681 8.59118 5.14298C9.2163 4.51786 10.0641 4.16667 10.9482 4.16667C11.8323 4.16667 12.6801 4.51786 13.3052 5.14298C13.9303 5.7681 14.2815 6.61595 14.2815 7.5C14.2815 8.38406 13.9303 9.2319 13.3052 9.85702C12.6801 10.4821 11.8323 10.8333 10.9482 10.8333ZM10.9482 9.16667C11.3902 9.16667 11.8142 8.99107 12.1267 8.67851C12.4393 8.36595 12.6149 7.94203 12.6149 7.5C12.6149 7.05797 12.4393 6.63405 12.1267 6.32149C11.8142 6.00893 11.3902 5.83333 10.9482 5.83333C10.5062 5.83333 10.0823 6.00893 9.76969 6.32149C9.45713 6.63405 9.28153 7.05797 9.28153 7.5C9.28153 7.94203 9.45713 8.36595 9.76969 8.67851C10.0823 8.99107 10.5062 9.16667 10.9482 9.16667Z" fill="#1A1A1A"/>
</svg>
