<svg width="1em" height="1em" viewBox="0 0 21 20" fill="none" xmlns="http://www.w3.org/2000/svg">
<path d="M15.974 13.8475L19.5432 17.4158L18.364 18.595L14.7957 15.0258C13.468 16.0902 11.8165 16.6691 10.1149 16.6667C5.97487 16.6667 2.61487 13.3067 2.61487 9.16667C2.61487 5.02667 5.97487 1.66667 10.1149 1.66667C14.2549 1.66667 17.6149 5.02667 17.6149 9.16667C17.6173 10.8683 17.0384 12.5198 15.974 13.8475ZM14.3024 13.2292C15.36 12.1416 15.9506 10.6837 15.9482 9.16667C15.9482 5.94333 13.3374 3.33333 10.1149 3.33333C6.89153 3.33333 4.28153 5.94333 4.28153 9.16667C4.28153 12.3892 6.89153 15 10.1149 15C11.6319 15.0024 13.0898 14.4118 14.1774 13.3542L14.3024 13.2292Z" fill="#1A1A1A"/>
</svg>
